<?xml version="1.0"?>
<svg version="1.1" xmlns="http://www.w3.org/2000/svg" width="274px" height="200px" style=""><path fill="#" d="M137.421875,189.0625q0,0.234375,0.078125,0.8203125t0.078125,0.8984375q0,2.5-0.9375,3.046875q-0.859375,1.640625-3.359375,1.640625q-0.9375,0-1.40625-0.46875q-0.625,0.625-1.171875,0.625l-1.40625-0.46875l-0.625,0l-1.484375,0l-0.625,0q-0.3125,0-0.6640625-0.15625t-0.5859375-0.15625l-0.390625,0q-0.15625,0.15625-0.625,0.15625q-0.15625,0-0.5859375-0.078125t-0.6640625-0.078125l-3.515625,0l-1.796875,0q-1.25,0.625-1.875,0.625q-0.859375,0-1.328125-0.46875q-0.3125,0.3125-0.9375,0.3125q-0.15625,0-0.4296875-0.078125t-0.3515625-0.078125l-1.484375,0q-1.40625,0-1.875-0.3125q-0.9375,0.3125-2.265625,0.3125q-0.9375,0-1.875-0.3125l-0.390625,0q-0.3125,0-0.8203125-0.15625t-0.7421875-0.15625q-0.46875,0-0.625,0.15625q-0.3125,0.15625-0.625,0.15625l-1.015625,0l-0.46875,0q-0.3125,0.15625-0.78125,0.15625q-0.703125,0-1.640625-0.3125q-0.9375,0.625-1.875,0.625q-0.625,0-0.78125-0.15625l-0.703125,0q-0.390625,0-1.09375,0.078125t-1.09375,0.078125q-1.015625,0-1.484375-0.3125q-0.546875,0-1.8359375-0.234375t-1.8359375-0.234375l-1.5625,0q-1.171875,0-1.640625-0.15625l-0.3125,0q-0.234375,0-0.703125-0.1171875t-0.703125-0.1171875q-0.703125,0.703125-1.640625,0.703125q-0.9375-0.3125-1.25-0.3125q-0.703125,0.46875-1.484375,0.46875l-0.625,0l-1.71875,0l-1.015625,0q-1.25-0.390625-1.25-2.578125q0-2.265625,0.625-3.828125q-1.09375,1.09375-1.5625,1.09375q-0.625,0-0.625-0.625t0.625-1.25q1.5625-2.03125,1.5625-2.109375q-0.15625-0.3125-0.15625-1.484375q-0.46875-1.40625-0.46875-3.125q0-2.96875,1.09375-3.203125q1.328125-1.015625,2.890625-1.015625q0.703125,0,1.015625,0.15625l0.3125,0q0.46875,0,0.78125,0.3125q0.859375-0.234375,1.40625-0.78125q0.15625-0.15625,0.703125-0.15625t1.09375,0.78125q0.234375-0.234375,1.7578125-0.5859375t1.9140625-0.3515625q0.3125,0,0.78125-0.5078125t1.015625-1.1328125t0.78125-0.78125q-0.078125-0.46875-0.46875-1.6015625t-0.390625-1.7578125q-0.390625-0.78125-0.625-0.78125l-0.3125,0.078125q-0.234375,0.078125-0.625,0.078125l-0.46875,0q-1.484375,0-1.484375-0.78125q0-0.9375,1.640625-1.796875q0.46875-0.46875,0.46875-0.625q0-0.078125-0.46875-0.78125q-2.109375-3.4375-2.421875-4.765625q-1.875,0.9375-2.734375,0.9375q-0.78125,0-0.78125-0.9375l0-0.390625q-0.703125,0-1.953125-0.078125t-1.875-0.078125q-0.234375,0-0.703125-0.15625t-0.703125-0.15625t-0.9375,0.078125t-1.015625,0.078125q-0.625,0-0.78125-0.15625q-1.640625,0.46875-3.203125,0.46875l-0.625,0l-0.703125,0l-1.40625,0l-0.78125,0q-0.3125,0-1.09375,0.1953125t-1.171875,0.1953125q-0.078125,0-0.3125-0.1171875t-0.3125-0.1171875q-0.3125-0.15625-0.78125-0.15625t-1.484375,0.3515625t-1.5625,0.3515625t-0.859375-0.15625q-0.234375-0.15625-0.4296875-0.390625t-0.234375-0.390625t-0.1171875-0.2734375t-0.15625-0.1171875q-0.3125,0-0.78125,0.46875q-1.5625,1.171875-2.578125,1.171875l-0.46875,0q-0.546875-0.15625-1.640625-0.1953125t-1.40625-0.1171875l-0.3125,0q-0.234375,0-0.5859375,0.15625t-0.5078125,0.15625q-0.546875,0-1.015625-0.46875q-0.546875,0.15625-0.6640625,0.1953125l-0.234375,0.078125t-0.234375,0.3125t-0.2734375,0.5078125q-0.46875,0.78125-2.109375,2.109375l0,0.3125q0,0.9375-0.78125,1.71875q-0.3125,0.3125-0.3125,0.78125l0,0.703125l0,0.46875q0,0.703125-0.9375,3.515625q-0.3125,2.03125-1.484375,3.515625q0.234375,0.390625,0.390625,0.5078125t0.234375,0.15625t0.390625,0.0390625t0.625,0.078125q0.46875,0,0.78125,0.625q0.15625-0.15625,0.625-0.15625q0.3125,0,0.46875,0.15625q0.78125,0.15625,2.109375,0.15625l0.625,0q2.109375,0,3.515625,0.46875q0.9375-0.3125,1.328125-0.3125q1.5625,0,2.3046875,1.5625t0.7421875,3.59375q0,0.859375-0.234375,1.5625q1.25-0.625,1.640625-0.625q0.625,0,0.625,0.625q0.15625,0.15625,0.15625,0.546875q0,0.3125-0.2734375,0.546875t-0.8203125,0.5078125t-0.625,0.3515625q-0.703125,0.703125-0.703125,1.5625q0,0.390625,0.1171875,1.2890625t0.1171875,1.2890625l0,0.625q0.3125,0.9375,0.3125,1.484375q0,1.25-0.6640625,2.109375t-1.7578125,0.78125q-1.640625-0.234375-3.046875-0.46875l-0.46875,0q-0.625,0-1.796875-0.390625q-0.234375,0.078125-0.859375,0.3125t-0.859375,0.234375q-0.15625,0-0.3515625-0.078125t-0.2734375-0.078125t-0.3515625,0.078125t-0.3515625,0.078125q-0.3125,0-0.859375-0.234375t-0.859375-0.3125q-1.953125,0.546875-3.203125,0.546875q-0.9375,0.3125-2.265625,0.3125q-2.5,0-3.203125-0.46875q-0.9375,0.3125-1.71875,0.3125q-1.40625,0-1.953125-1.015625q-0.46875,0.703125-2.0703125,0.9375t-2.0703125,0.546875q-0.078125,0-0.15625,0.078125t-0.15625,0.078125q-0.15625,0-0.390625-0.15625t-0.390625-0.15625q-0.546875,0-2.109375,0.3125q-0.46875,0.15625-1.40625,0.15625q-1.171875,0-2.421875-0.3125l-0.625,0.078125q-0.625,0.078125-1.015625,0.078125q-0.46875,0-1.0546875-0.078125t-0.6640625-0.078125q-0.625-0.078125-1.796875-0.078125t-1.9921875-0.078125t-1.5234375-0.3125t-2.96875-0.3125t-3.125-0.703125q-0.078125,0-0.3515625,0.15625t-0.4296875,0.15625q-0.3125,0-0.46875-0.3125q-0.15625-0.15625-0.15625-0.46875q0-0.234375,0.2734375-0.7421875t0.3515625-0.6640625q0-0.234375-0.078125-0.9375t-0.078125-1.015625q0-0.46875,0.078125-1.09375t0.078125-0.78125q0-0.78125-0.234375-2.5t-0.234375-2.5q0-0.9375,0.15625-1.40625q0-5,3.671875-5q0.625,0.078125,2.578125-0.3515625t2.890625-0.4296875q1.015625,0,1.71875,0.46875q0.703125-2.1875,1.640625-2.890625q0.3125-0.234375,0.6640625-0.3125t0.546875-0.1171875t0.390625-0.234375t0.2734375-0.5859375q0.15625-0.234375,1.09375-1.6796875t1.015625-2.1484375q0.15625-0.859375,0.6640625-1.7578125t1.2890625-1.9140625t1.09375-1.484375q0-0.078125,0.078125-0.234375t0.078125-0.234375q0-0.15625-0.078125-0.546875t-0.078125-0.546875q0-0.703125,0.46875-1.171875q0.234375-0.15625,0.9375-1.0546875t1.328125-1.1328125q-0.625,0-0.625-0.625q0-0.78125,0.46875-1.015625q0.859375-0.703125,1.09375-2.1875q0.15625-0.546875,0.8984375-1.6015625t0.8984375-1.4453125t0.5078125-1.0546875t0.4296875-1.2109375q0-0.3125,0.1171875-0.8984375t0.2734375-1.25t0.234375-0.8984375l0-0.3125q0-0.546875,0.390625-1.796875t0.390625-1.40625q0.15625-1.015625,1.3671875-2.8125t1.5234375-2.65625q0.3125-0.9375,1.328125-2.1875q0-1.171875,0.78125-1.953125l0-0.3125q0-0.625,0.3125-1.40625t0.8984375-1.7578125t0.6640625-1.1328125q0.234375-0.625,0.7421875-1.8359375t0.7421875-1.8359375q0,0.234375-0.546875-0.46875l-0.234375-0.546875q0-0.78125,1.09375-1.875q0.78125-1.171875,1.09375-1.484375l0-0.46875q0-0.46875,0.3125-1.09375q0.9375-2.8125,1.484375-3.515625q0.234375-0.390625,0.2734375-1.1328125t0.3515625-1.1328125l0.78125-0.78125q0.46875-1.875,1.328125-2.421875q1.328125-4.0625,1.875-4.765625q0.3125-2.421875,1.25-4.21875q0.15625-0.390625,0.4296875-1.171875t0.4296875-1.171875q0.546875-2.1875,0.78125-2.421875q0.46875-0.546875,0.78125-1.640625t0.46875-1.40625q-0.625,0-0.625-0.625q0-0.78125,1.953125-2.734375q0.15625-0.625,0.703125-1.7578125t1.015625-1.6015625q0.078125-0.078125,0.390625-0.46875t0.46875-0.546875t0.46875-0.5078125t0.5859375-0.546875t0.5859375-0.390625t0.6640625-0.2734375t0.6640625,0q0.3125-0.15625,0.859375-0.15625l0.78125,0l0.625-0.15625q0.15625,0-0.3125,0.234375l-0.46875,0.234375q0.3125-0.15625,1.40625-0.625q0.15625-0.15625,0.625-0.15625q0.234375,0,0.703125,0.15625t0.78125,0.15625q0.078125,0,0.3125-0.078125t0.3125-0.078125l0.3125,0q0.3125,0,0.8984375,0.15625t0.8984375,0.15625q0.46875-0.3125,1.71875-0.3125l1.328125,0l0.46875,0q0.46875,0,1.40625-0.15625t1.328125-0.15625l0.46875,0l0.78125,0q0.546875,0,2.109375-0.3125l0.625,0q0.703125,0,2.2265625,0.3125t2.2265625,0.3125q0.546875,0,1.09375,0.3515625t1.015625,0.9765625t0.859375,1.2890625t0.78125,1.6015625t0.625,1.5625t0.546875,1.484375t0.390625,1.09375q0.078125-0.078125,0.5859375-0.5078125t0.8984375-0.6640625t0.703125-0.15625q0.703125,0,0.703125,0.625q0,0.390625-0.15625,0.546875q-0.234375,0.390625-1.171875,0.9765625t-0.9375,1.0546875l0,0.15625q0.234375,0.78125,1.25,2.421875q0.3125,0.546875,1.09375,1.796875t1.25,2.1875t0.703125,1.953125q0.703125,1.25,1.5234375,3.9453125t1.5234375,3.8671875q0.234375,0.46875,0.8984375,1.5234375t1.09375,1.953125t0.5859375,1.6796875q1.796875-1.171875,2.109375-1.171875q0.546875,0,0.78125,0.859375l0,0.3125q0,1.171875-1.171875,2.34375q-0.46875,0.703125-0.46875,1.015625l0.3125,0.625q0.46875,0.625,1.171875,2.03125q1.796875,3.046875,2.03125,5.46875q0.390625,1.09375,0.703125,2.734375q0.46875,0.46875,0.46875,0.9375q0.15625,0.15625,0.46875,0.15625t0.46875,0.3125q0.15625,0.15625,0.15625,0.546875l0,0.9375l0,0.625q0.390625,0.390625,0.625,1.09375q0.9375,1.171875,1.328125,2.265625q1.09375,1.484375,1.953125,4.765625t1.40625,4.375q0.9375,0.78125,2.03125,4.609375q2.421875,4.609375,2.734375,6.09375q0.15625,0.3125,0.46875,0.3125q0.15625,0,0.546875-0.15625t0.625-0.15625l0.3125,0q0.78125,0.234375,0.78125,0.625q0,0.46875-0.546875,1.171875t-0.546875,0.78125q0.625,1.015625,1.25,1.25q0.3125,0,1.09375,3.203125q0.9375,2.265625,1.171875,3.671875q0.859375,1.25,2.65625,4.53125q0.859375,1.640625,2.4609375,3.125t3.0078125,1.484375q0.46875,0.078125,1.40625,0.5078125t1.328125,0.4296875q0.9375,0,1.5625,0.3125q0.46875-0.15625,1.640625-0.15625q3.28125,0,4.296875,1.484375q0.46875,0.9375,0.46875,2.890625q0,1.5625-0.15625,2.03125q0.46875,2.34375,0.46875,3.828125q0,1.171875-0.3125,2.109375z M133.75,186.015625l0,0.15625l0-0.15625l0-0.46875q0-0.390625,0.078125-1.5625t0.078125-1.640625q0-1.484375-0.3125-1.484375q-0.546875,1.40625-1.8359375,4.0234375t-1.8359375,4.0234375q1.40625-0.9375,2.109375-0.9375q0.9375,0,1.875,2.1875q-0.15625-0.625-0.15625-3.046875l0-1.09375z M121.796875,176.71875l0,0.15625l0-0.15625q-0.3125-0.15625-0.5859375-0.4296875t-0.4296875-0.390625t-0.3125-0.1171875q-0.3125,0-1.09375,0.78125q-1.171875,1.015625-5,4.84375q-4.53125,4.375-8.90625,8.90625q13.75-7.890625,15.625-8.90625q0.859375-0.625,2.265625-1.484375q0.15625-0.15625,0.46875-0.15625q0.625,0,0.625,0.78125q0,0.546875-0.15625,0.703125q-0.234375,0.46875-0.703125,0.9375t-0.8203125,0.78125t-0.9765625,0.78125t-0.859375,0.703125q-1.171875,1.09375-3.7109375,3.046875t-3.7890625,2.96875q2.8125-1.640625,8.3984375-4.921875t8.3984375-4.84375l-0.3125,0q-1.328125,0-2.265625-0.625q-0.390625-0.15625-2.734375-0.9375q-0.78125-0.078125-1.71875-0.8203125t-1.40625-1.6015625z M110.234375,191.015625q0.46875-0.234375,0.9765625-0.625t1.171875-0.9765625t0.8984375-0.8203125q0.78125-0.625,2.3046875-1.8359375t2.3046875-1.8359375q-1.5625,1.015625-4.84375,2.7734375t-4.921875,2.7734375q0.234375,0.078125,2.109375,0.546875z M116.640625,170.46875q-0.625-0.78125-1.25-2.65625t-0.859375-2.421875q-0.078125,0.234375-1.5625,1.25q-0.703125,0.46875-2.0703125,1.4453125t-2.0703125,1.4453125q-8.828125,6.09375-11.875,8.359375q-10.3125,7.421875-15.15625,12.265625q1.171875,0.234375,2.65625-0.3125t2.421875-1.171875t2.6953125-1.9921875t2.1484375-1.6015625q10-6.875,12.265625-8.359375q0.703125-0.390625,2.3828125-1.6015625t2.734375-1.875t2.6171875-1.3671875t2.8125-0.859375q0.078125,0,0.2734375-0.1171875t0.2734375-0.1171875q0.390625,0,0.9375,0.546875q0.46875,0.234375,0.46875,0.625q0,0.78125-1.40625,1.25q-9.53125,6.015625-11.40625,7.34375q-5.546875,3.90625-9.296875,7.265625q-1.796875,1.796875-2.03125,2.5q0.9375-0.3125,1.875-0.859375t2.1484375-1.5234375t1.6796875-1.2890625q1.40625-0.9375,4.0625-2.890625t3.984375-2.890625q0.546875-0.390625,2.1875-1.640625t2.5390625-1.9140625t2.34375-1.640625t2.7734375-1.6015625t2.65625-1.015625q-1.328125-1.015625-1.953125-2.578125z M92.03125,171.015625l0.15625,0l-0.15625,0q0.15625,0.15625,0.15625,0.46875q0.625-0.46875,1.9140625-1.4453125t1.9140625-1.4453125q-3.59375,2.265625-3.984375,2.421875z M108.984375,154.140625q-0.078125-0.078125-1.015625,0.5859375t-1.09375,0.8984375q0.078125-0.078125,0.3515625-0.2734375t0.5859375-0.3515625t0.5859375-0.3515625t0.46875-0.3125t0.1171875-0.1953125z M107.03125,150q-2.5,2.109375-7.421875,6.25t-7.421875,6.25q1.5625-0.703125,3.3984375-1.8359375t2.8515625-1.9140625t3.28125-2.5390625t2.890625-2.2265625q0.078125-0.078125,0.5078125-0.3125t0.859375-0.5078125t0.859375-0.5859375t0.6640625-0.625t0.15625-0.46875q-0.390625-0.78125-0.625-1.484375z M113.75,162.96875l-0.15625,0l0.15625,0q-0.15625,0.078125-0.46875,0.3125t-0.46875,0.3125q0.9375,0.3125,1.40625,0.625q-0.3125-0.9375-0.46875-1.25z M112.03125,160.078125q-0.15625-0.15625-1.7578125,0.78125t-3.9453125,2.5t-4.53125,3.046875t-4.1015625,2.8515625t-2.1484375,1.5234375q1.328125-0.703125,6.09375-3.203125t7.34375-3.984375q0.390625-0.234375,2.1484375-1.1328125t1.8359375-0.8984375q-0.859375-1.328125-0.9375-1.484375z M102.109375,162.8125l1.25-0.78125l-1.796875,0.9375q0.234375,0,0.546875-0.15625q5.546875-3.359375,7.96875-4.609375q0.3125-0.15625,0.3125-0.703125q0-0.390625-0.3125-1.09375l-0.3125-0.625q-0.9375,0.703125-2.65625,2.34375t-2.5,2.265625q-5.9375,4.21875-7.96875,5.78125q0.3125-0.234375,2.3046875-1.484375t3.1640625-1.875z M104.296875,143.90625q-0.15625-0.3125-0.625-2.03125q-12.1875,8.984375-18.046875,14.6875q0.546875,0.3125,1.09375,1.328125q2.1875-1.328125,6.7578125-4.0625t6.8359375-4.140625q3.4375-2.1875,3.671875-2.265625q0.234375-0.15625,0.625-0.3125t0.546875-0.2734375t0.15625-0.3515625q0-0.078125-0.078125-0.2734375t-0.078125-0.3515625q-0.15625-0.234375-0.4296875-0.9765625t-0.4296875-0.9765625z M103.046875,138.828125q-0.78125-1.171875-1.09375-1.796875q-15.625,10.9375-25.625,18.90625q2.421875-1.40625,7.2265625-4.1796875t7.1484375-4.1015625q0.46875-0.234375,9.296875-5.46875q0.625-0.3125,2.578125-1.484375q0.625-0.390625,0.625-0.625q0-0.078125-0.078125-0.46875t-0.078125-0.78125z M100.15625,133.828125q0.078125,0.15625-3.90625,2.6953125t-8.5546875,5.234375t-5.7421875,3.1640625q-0.234375,0.078125-1.796875,0.46875q-0.3125,0-0.9765625,0.859375t-1.4453125,0.703125q-1.25,2.421875-6.015625,5.9375q1.71875-1.09375,9.1796875-5.8203125t11.4453125-7.1484375q0.390625-0.234375,1.953125-1.2109375t2.34375-1.4453125t2.0703125-1.015625t2.3828125-0.625q-0.15625-0.3125-0.46875-0.8984375t-0.46875-0.8984375z M64.296875,156.40625l0.46875-0.3125l-0.46875,0.3125q7.03125-4.921875,10.390625-8.125q-2.34375,1.40625-7.1484375,4.1796875t-7.2265625,4.1015625q0.3125,0.15625,0.9375,0.15625q0.46875,0,1.5234375-0.15625t1.5234375-0.15625z M7.1875,185.390625l0.625-0.625l-0.625,0.625q2.03125-1.875,6.5625-4.6875q-0.3125-0.15625-1.171875,0.3125t-1.7578125,1.09375t-1.0546875,0.703125t-0.625,0.2734375t-0.625,0.3125t-0.46875,0.3125t-0.46875,0.390625t-0.2734375,0.5078125t-0.1171875,0.625l0,0.15625z M26.5625,164.609375l0,0.46875q4.296875-3.046875,15.234375-8.828125q2.5-1.25,7.421875-4.375t7.734375-4.453125q-0.15625,0-0.5078125-0.15625t-0.5859375-0.15625q-1.171875,0-2.109375,0.15625q-0.78125,0.390625-1.875,0.390625q-2.96875,0-3.90625-1.953125q-14.0625,8.4375-16.09375,9.609375q-0.9375,0.546875-1.40625,1.3671875t-0.546875,1.328125t-0.15625,1.9140625q-0.078125,0.546875-0.7421875,1.3671875t-0.7421875,1.3671875q-0.078125,0.625-0.8984375,0.9765625t-0.8203125,0.9765625z M53.75,97.34375l0,0.15625q0.15625,0,0.703125-0.5078125t0.625-0.5859375q1.953125-2.34375,2.5-2.890625q0.703125-0.78125,2.109375-2.3046875t2.109375-2.3046875q-2.109375,1.40625-4.21875,2.578125q-1.640625,0.546875-1.875,0.9375q-0.234375,2.1875-1.953125,4.921875z M80.78125,88.4375l-4.140625,3.203125q4.140625-3.046875,4.140625-3.203125q-14.84375,11.09375-28.28125,21.71875q13.671875-9.453125,21.40625-13.75q6.09375-3.359375,8.515625-3.828125q-0.3125-0.703125-0.8203125-2.109375t-0.8203125-2.03125z M68.671875,114.140625l-0.390625-0.3125q0.234375,0.3125,0.390625,0.3125q-0.15625-0.15625-0.15625-0.46875q0-0.859375,2.1875-3.046875q1.640625-1.71875,5.0390625-5t5.0390625-4.921875q-1.171875,0.625-7.65625,4.53125q-0.3125,0.15625-2.109375,1.40625t-3.3984375,2.1484375t-2.1484375,0.5859375q0.546875,1.09375,1.5625,3.828125t1.796875,4.140625q2.421875-2.109375,8.1640625-5.7421875t8.3203125-6.0546875q-0.46875,0.234375-4.765625,2.8515625t-7.9296875,4.4921875t-3.9453125,1.25z M89.609375,109.21875q0.078125,0.15625-1.09375,1.2109375t-2.5390625,2.2265625t-1.5234375,1.328125q-1.328125,1.171875-3.90625,3.515625t-3.90625,3.59375q4.765625-3.203125,10.234375-6.25q3.671875-2.03125,4.453125-2.265625q-1.5625-2.421875-1.71875-3.359375z M74.375,128.28125q-0.15625-0.15625-0.15625-0.46875q0-1.015625,1.6015625-2.7734375t3.3203125-3.0859375t3.90625-2.890625t2.265625-1.5625q-2.96875,1.71875-11.09375,6.71875q-0.15625,0.15625-0.625,0.4296875t-0.703125,0.46875t-0.234375,0.4296875l0,0.15625l0.3125,1.09375q0.78125,1.171875,0.78125,2.109375q0.390625,0.703125,1.1328125,2.1484375t1.1328125,2.1484375q4.296875-2.890625,12.265625-8.984375q0.3125-0.234375,1.25-0.859375t1.6796875-1.2109375t1.484375-1.25t1.09375-1.3671875t0.1171875-1.328125q-11.328125,7.421875-15.46875,9.453125q-0.078125,0-0.703125,0.3125t-1.25,0.546875t-1.09375,0.234375q-0.78125,0-1.015625-0.46875z M70.390625,142.65625l0.15625,0l-0.3125,0l0.15625,0q0.625,0,2.03125,0.3125t1.953125,0.3125l0.46875,0q1.015625-0.234375,1.015625-0.46875l0-1.09375q-0.15625-0.234375-0.234375-0.8203125t-0.234375-0.8203125q-0.234375-0.390625-0.5859375-1.2890625t-0.5859375-1.2890625q-0.390625-0.859375-0.625-0.9375q-0.625,0-0.625-0.46875l0-0.78125l0-0.3125q-2.578125-5-3.515625-7.734375q-0.546875,0.390625-1.171875,0.390625q-0.46875,0-0.46875-0.546875q0-0.625,1.015625-1.40625q-0.078125-0.15625-0.390625-0.859375t-0.46875-0.9375q-0.234375-0.46875-0.625-1.328125t-0.625-1.328125q-0.3125-0.625-1.015625-1.9140625t-1.2109375-2.3828125t-0.8203125-2.109375q-1.25,2.5-1.40625,2.65625l0,0.390625q0,1.328125-1.015625,2.34375q0.078125,0.46875-0.390625,1.71875t-0.859375,1.796875q0,0.3125-0.15625,0.546875t-0.4296875,0.546875t-0.3515625,0.546875q-0.078125,0.15625-0.1171875,0.6640625t-0.1953125,0.7421875q-0.3125,3.28125-1.171875,5.15625q-0.234375,0.546875-0.8203125,2.578125t-1.2109375,2.8125q-0.078125,0.78125-1.09375,1.71875t-1.171875,1.484375q-0.078125,0.3125-0.4296875,1.09375t-0.3515625,1.328125q1.5625,0.3125,2.890625,0.3125q0.625,0,1.875-0.3125l0.625,0q0.46875,0,1.6015625,0.234375t1.6015625,0.234375q0.3125,0,1.25-0.234375t1.328125-0.234375q0.078125,0,0.234375,0.078125t0.234375,0.078125q0.3125-0.15625,2.265625-0.15625l0.78125,0q0.3125-0.15625,0.625-0.15625q0.234375,0,0.546875,0.234375t0.625,0.234375q0.46875-0.3125,1.40625-0.625z M47.65625,144.0625l-1.09375,0.703125l0,0q0.15625-0.234375,1.09375-0.703125q0.234375-0.15625,0.8203125-1.328125t0.5078125-1.640625q-2.109375,1.875-13.28125,10.234375z M51.015625,136.40625l-0.15625,0l0.15625,0q0,0.078125-3.515625,2.421875q0.390625-0.234375,3.515625-2.421875z M34.0625,146.015625q0-0.3125,4.84375-3.203125q0.9375-0.546875,2.734375-1.7578125t2.65625-1.7578125q0.234375-0.15625,2.265625-1.640625t3.203125-2.1875q0.078125-0.078125,1.71875-1.25t1.796875-1.796875q-8.203125,5.78125-13.28125,8.828125q-1.953125,1.171875-4.140625,2.1875q-0.78125,0.390625-1.1328125,1.2890625t-0.6640625,1.2890625z M36.015625,141.25l0,0.46875q5.390625-2.8125,17.265625-11.25q0.859375-0.625,1.25-2.265625t0.703125-2.1875l0-0.46875q0-0.703125,0.5078125-1.875t0.5859375-1.640625q-10.390625,7.734375-14.53125,11.328125q-0.859375,0.546875-2.890625,2.265625q-0.546875,1.328125-1.484375,1.71875q0,2.03125-1.40625,3.90625z M59.6875,113.671875q0-0.3125,0.15625-0.46875q-9.21875,6.640625-15.234375,12.65625q6.875-5.078125,11.25-7.1875q0.078125-0.078125,1.2890625-0.5859375t1.2890625-0.7421875q0.15625-0.390625,0.5078125-1.6796875t0.7421875-1.9921875z M94.84375,120.546875l-0.625,0.703125l0.625-0.703125q-2.1875,2.1875-5.703125,5q4.765625-3.046875,6.5625-3.515625q-0.15625-0.234375-0.4296875-0.7421875t-0.4296875-0.7421875z M95.390625,123.75l-1.171875,0.46875q1.015625-0.3125,1.171875-0.46875q-2.265625,1.015625-12.96875,7.890625q-0.078125,0.078125-0.7421875,0.46875t-1.4453125,0.859375l-1.5625,0.9375t-1.2890625,0.859375t-0.4296875,0.546875q0.390625,0.625,1.09375,2.421875q0.234375-0.859375,0.8203125-1.640625t1.6015625-1.5625t1.6796875-1.2109375t1.9921875-1.25t1.484375-0.8984375q0.78125-0.546875,3.1640625-2.0703125t3.9453125-2.734375t2.65625-2.6171875z M79.0625,140.234375l0.46875-0.46875q-0.46875,0.3125-0.46875,0.46875q1.5625-1.40625,4.296875-3.515625q-0.3125,0.15625-1.328125,0.9375t-1.875,1.25t-1.40625,0.390625q0.078125,0.078125,0.15625,0.4296875t0.15625,0.5078125z M81.09375,136.25q1.640625-1.015625,5-2.9296875t5.078125-2.8515625q0.9375-0.46875,2.6953125-1.5234375t2.6171875-1.5234375q0.9375-0.46875,1.09375-0.46875q-0.234375-0.546875-0.625-2.734375q-0.390625,0.625-0.9375,1.25t-1.3671875,1.25t-1.2890625,0.9375t-1.5625,1.015625t-1.25,0.859375q-1.015625,0.78125-3.046875,2.0703125t-3.59375,2.3828125t-2.8125,2.265625z M88.984375,107.265625l-0.703125,0.15625l0.703125-0.15625q-1.640625,0.546875-3.3203125,1.3671875t-3.515625,1.953125t-2.96875,1.9140625t-3.2421875,2.3046875t-2.8125,2.0703125q-3.515625,2.34375-3.359375,2.734375q0.390625,0.390625,0.625,1.09375q0.234375,0.390625,0.546875,1.2890625t0.546875,1.2890625q6.5625-5.46875,11.40625-9.921875q0.15625-0.15625,1.015625-0.8203125t1.640625-1.328125t1.640625-1.4453125t1.3671875-1.4453125t0.4296875-1.0546875z M61.09375,110.46875q0-0.15625-0.15625-0.15625q-0.234375,0-1.09375,0.859375q0.3125-0.15625,0.625-0.15625l0.3125,0.15625q0-0.234375,0.3125-0.703125z M59.21875,107.421875l3.984375-2.1875q0-0.078125-0.8203125,0.3515625t-1.796875,0.9765625t-1.3671875,0.859375q14.375-8.28125,21.5625-12.578125q-2.1875,0.859375-4.3359375,1.875t-4.8046875,2.6171875t-3.9453125,2.421875t-4.5703125,3.0078125t-3.90625,2.65625z M51.328125,104.0625l0.390625-0.3125q-0.078125,0.15625-0.390625,0.3125q0-0.15625,1.796875-1.09375t3.828125-1.953125t2.421875-1.25q5.46875-3.28125,13.75-8.4375q-1.484375,0.859375-9.609375,5.3515625t-12.1875,7.3828125z M48.671875,111.015625l0.15625-0.234375q0,0.078125-0.15625,0.234375q0-0.234375,3.1640625-2.5390625t4.3359375-3.0859375q7.34375-5.78125,11.015625-8.515625q-7.734375,4.84375-14.21875,8.359375q-2.109375,0.546875-2.265625,1.25q-1.484375,3.984375-2.03125,4.53125z M48.125,117.03125l-0.3125,0.3125q0.46875-0.3125,0.46875-0.46875l-0.15625,0.15625q-0.15625,0.15625-0.78125,0.5078125t-1.015625,0.625t-0.8203125,0.6640625t-0.5859375,0.78125q4.296875-2.8125,5.9375-3.671875z M53.28125,116.25l-1.796875,1.09375q1.171875-0.46875,1.796875-1.09375q-3.4375,2.1875-5.78125,3.515625l-1.09375,0.546875t-1.6015625,0.9375t-0.8203125,0.78125q-0.625,1.875-0.625,3.046875q2.890625-3.046875,9.921875-8.828125z M40.46875,132.109375l0,0.15625l0,0.15625q0.234375,0,1.328125-1.09375q0.9375-0.703125,2.03125-1.796875q3.28125-2.65625,5-3.671875q5.078125-3.90625,8.125-6.09375q-3.359375,1.71875-10.859375,6.875q-0.703125,0.546875-2.0703125,1.6015625t-2.0703125,1.6015625q-0.390625,0.3125-0.7421875,1.1328125t-0.7421875,1.1328125z M32.96875,151.484375q0-0.15625,0.3515625-0.5078125t0.8984375-0.703125t1.015625-0.703125t0.9765625-0.625t0.5859375-0.3515625q2.578125-1.953125,3.515625-2.734375q3.75-2.65625,5.9375-4.453125q-1.328125,0.78125-4.1796875,2.3828125t-4.1796875,2.3828125q-0.625,0.390625-1.9921875,1.2109375t-1.9921875,1.2109375q-0.46875,0.234375-0.625,0.6640625t-0.1953125,1.1328125t-0.1171875,1.09375z M34.6875,161.875q-7.5,4.53125-10.078125,6.71875q1.171875-0.625,10.078125-6.71875z M23.671875,170.78125l0,0.234375l1.09375-0.546875q1.953125-1.171875,2.265625-1.40625q1.640625-0.859375,5.78125-3.828125q1.015625-0.703125,3.203125-2.1875t3.203125-2.1875q0.3125-0.234375,1.3671875-0.8984375t1.796875-1.25t1.1328125-1.2109375q-0.546875,0.390625-6.0546875,4.3359375t-8.3203125,5.8203125q-2.8125,1.796875-3.671875,2.1875q-0.15625,0.078125-0.625,0.234375t-0.78125,0.3125t-0.390625,0.390625z M44.765625,156.875l0.390625-0.15625l-0.390625,0.15625q0.390625-0.234375,1.1328125-0.78125t1.1328125-0.78125z M8.671875,181.09375l-0.390625,0.78125q0.390625,0,0.859375-0.46875q0-0.3125-0.46875-0.3125z M19.0625,177.5q0.078125-0.234375,0.9765625-0.703125t2.265625-1.09375t1.5234375-0.703125q3.75-2.1875,6.25-3.515625q0.234375-0.15625,1.40625-0.7421875t2.4609375-1.25t2.6171875-1.4453125t2.1875-1.40625t0.78125-0.9375q-3.984375,2.1875-10.390625,5.9375q-1.25,0.703125-3.59375,2.0703125t-3.59375,2.0703125l-0.859375,0.4296875t-1.2890625,0.6640625t-0.7421875,0.625z M56.640625,150.625l-0.78125,0.546875l0.9375-0.546875l-0.15625,0q-1.640625,1.015625-5.9375,4.0625q1.015625-0.625,3.7109375-2.3828125t4.1796875-2.6171875q-0.3125,0.15625-0.9765625,0.46875t-0.9765625,0.46875z M67.96875,147.265625l-2.34375,1.796875q0.078125-0.078125,0.1953125-0.15625t0.4296875-0.3125t0.5859375-0.4296875t0.5859375-0.4296875t0.390625-0.390625l0.15625-0.078125q-7.96875,6.09375-11.640625,9.609375q0.859375,0,4.140625-2.1875q2.578125-1.40625,4.296875-2.578125l8.203125-4.6875q-0.46875,0-1.6015625-0.15625t-1.6015625-0.15625l-0.15625,0q-0.15625,0-0.5078125,0.15625t-0.5859375,0.15625q-0.078125,0-0.2734375-0.078125t-0.2734375-0.078125z M85.78125,141.25q5-2.890625,10.546875-6.875q-1.796875,1.171875-5.3125,3.4375t-5.234375,3.4375z M98.59375,130.15625q-0.703125-1.015625-0.703125-1.71875q-7.890625,5.234375-12.109375,8.4375q-6.40625,4.21875-6.25,5.3125q7.1875-4.0625,14.0625-8.203125q2.8125-1.5625,4.453125-2.65625q0.703125-0.46875,0.703125-0.546875t-0.078125-0.2734375t-0.078125-0.3515625z M92.96875,115.625q-0.15625-0.15625-0.625-1.484375q-0.390625,0.3125-2.3046875,1.6015625t-2.5390625,1.7578125t-2.2265625,1.640625t-2.4609375,1.875l-2.1484375,1.7578125t-2.265625,2.03125t-1.9140625,1.9921875q3.984375-1.71875,9.140625-5.234375q0.46875-0.234375,6.875-4.21875q0.78125-0.390625,0.78125-0.78125q0-0.46875-0.3125-0.9375z M88.125,105.234375q0-0.46875-0.15625-0.625q-0.703125,1.171875-1.71875,2.1875q0.234375-0.15625,0.859375-0.3515625t0.8984375-0.46875t0.1171875-0.7421875z M86.40625,100.390625q-0.3125-0.46875-1.015625-1.4453125t-1.2109375-1.875t-0.8203125-1.7578125q-3.515625,2.03125-9.8046875,6.5234375t-9.1015625,6.2890625l0.46875,0.46875q0.078125-0.46875,0.9765625-1.09375t2.1875-1.2890625t1.3671875-0.6640625l2.5390625-1.5234375t2.96875-1.796875t2.4609375-1.5234375q0.46875-0.234375,1.6015625-0.9375t2.109375-1.171875t1.7578125-0.546875q0.9375,0,0.9375,0.625q0,0.3125-0.234375,0.7421875t-0.546875,0.8984375t-0.3125,0.546875q-1.875,2.1875-5.9375,6.0546875t-4.453125,4.2578125q1.328125-0.703125,3.7890625-2.1875t3.7109375-2.1875q0.78125-0.46875,2.4609375-1.4453125t2.4609375-1.4453125q0.234375-0.078125,0.703125-0.4296875t0.9375-0.5859375t0.78125-0.234375q-0.15625-0.3125-0.390625-1.1328125t-0.390625-1.1328125z M67.96875,87.421875l-0.15625,0l0.15625,0q-0.78125,0.390625-0.9375,0.390625q-0.234375,0-0.7421875-0.078125t-0.6640625-0.078125q-0.859375,0-1.171875,0.46875q-0.78125,0.9375-2.3046875,2.6171875t-1.6796875,1.8359375q-1.953125,2.109375-7.03125,7.8125q5.78125-2.890625,22.734375-13.59375q-2.5,0.625-3.046875,0.625q-0.46875,0-1.09375-0.3125q-0.234375,0.078125-0.8984375,0.390625t-1.0546875,0.3125l-0.78125-0.390625l-0.78125,0l-0.546875,0z M11.015625,190.625q1.171875,0,1.796875,0.390625q0.78125-0.46875,2.265625-1.953125q3.046875-2.734375,5.234375-4.140625q-1.25,0.78125-4.609375,2.6171875t-5.15625,2.9296875l-0.15625-0.15625q0.15625,0,0.625,0.3125z M24.453125,191.015625l0.15625,0l-0.15625,0q1.015625-0.703125,3.046875-0.703125l0.3125,0q0.3125,0.15625,0.859375,0.15625q0.78125,0,1.5234375-0.5078125t1.6796875-1.5234375t1.25-1.328125q0.15625-0.15625,1.0546875-0.9765625t1.8359375-1.6796875t1.875-1.796875t1.4453125-1.7578125t0.3515625-1.1328125q-0.15625-0.15625-0.46875-0.15625q-0.390625,0-1.0546875,0.3125t-1.328125,0.78125t-0.8203125,0.546875q-2.421875,1.25-5,2.8125l-11.953125,7.265625l0.46875,0q0.3125,0,1.09375-0.3515625t1.171875-0.3515625q0.546875,0,1.71875,0.390625q0.234375-0.234375,0.46875-0.234375t0.46875,0.234375z M41.40625,190.3125q0.625,0.078125,1.171875-0.46875t1.09375-1.5234375t0.78125-1.2109375q1.40625-1.953125,4.53125-5.546875q-1.5625,0.546875-3.125,1.25t-3.4375,1.8359375t-2.8515625,1.71875t-3.2421875,2.109375t-2.734375,1.8359375q1.796875,0,3.671875,0.3125l0.3125,0q0.390625,0,1.1328125-0.3125t1.1328125-0.3125q0.3125,0,0.8203125,0.15625t0.7421875,0.15625z M51.328125,189.0625q0-0.3125-0.15625-0.3125q-0.234375,0-0.625,0.625q0,0.3125,0.46875,0.78125q0.3125-0.3125,0.3125-0.46875l0-0.3125l0-0.3125z M50.078125,186.484375l-1.25,0.9375q0.3125-0.3125,1.25-0.9375q1.25-0.703125,1.25-2.265625q0-0.390625-0.078125-1.2890625t-0.078125-1.3671875q-0.46875-0.3125-3.2421875,3.3984375t-3.6328125,5.1953125q0.78125-0.15625,1.8359375-0.8203125t2.2265625-1.6015625t1.71875-1.25z M44.140625,181.25l0.15625,0l-0.15625,0l-0.46875,0l-0.625,0q-0.3125,0-0.78125,0.15625q-0.234375,0.078125-0.5859375-0.0390625t-0.4296875-0.1171875q-0.3125,0-0.46875,0.3125q-0.15625,0.15625-0.390625,0.46875t-0.390625,0.46875q-1.796875,1.875-5.625,5.46875q3.984375-2.578125,10.9375-6.5625l-0.546875,0q-0.3125,0-0.625-0.15625z M26.5625,184.921875l1.953125-1.171875q0.15625,0-2.734375,1.796875q0.15625-0.15625,0.78125-0.625q0.859375-0.46875,5.234375-3.0078125t6.796875-3.8671875q-0.859375-0.859375-1.484375-2.734375q-0.546875,0.390625-3.671875,2.34375t-4.1015625,2.578125t-3.59375,2.3828125t-4.0234375,2.8515625t-3.359375,2.6953125t-3.515625,3.1640625q1.484375-0.390625,3.1640625-1.2109375t2.8125-1.5234375t3.0078125-1.9140625t2.734375-1.7578125z M37.734375,172.890625q0-0.078125-0.8984375,0.46875t-1.6015625,1.015625q-0.15625,0.078125-1.4453125,0.859375t-2.0703125,1.171875q0.3125-0.15625,1.9140625-0.8984375t2.578125-1.328125t1.5234375-1.2890625z M39.6875,167.8125q0,0.3125-6.71875,3.671875q-1.328125,0.78125-4.140625,2.3828125t-4.21875,2.3828125q-10.859375,5.9375-15.46875,9.453125q0.703125-0.390625,6.6015625-3.828125t9.0234375-5.15625q0.390625-0.234375,10.46875-6.09375q0.390625-0.234375,1.4453125-0.7421875t1.875-1.015625t1.1328125-1.0546875z M51.875,157.5q0.3125-0.3125,0.9375-0.3125l0.46875,0q0.625,0,0.9375-0.46875q1.171875-1.171875,2.578125-2.34375q4.6875-4.0625,7.34375-6.09375q-9.375,5.546875-14.84375,9.0625l1.25,0q1.015625,0,1.328125,0.15625z M68.984375,156.5625l0.15625-0.15625l-0.15625,0.15625q0.703125-0.46875,1.25-0.46875q0.390625,0,1.2109375,0.15625t1.2109375,0.15625q0.46875,0,0.78125-0.15625q2.65625-2.34375,5.625-4.453125q11.875-8.75,15.625-11.40625q-3.828125,2.1875-13.90625,8.515625q-1.25,0.78125-3.7109375,2.3828125t-3.7890625,2.3828125q-0.3125,0.15625-1.40625,0.859375t-2.03125,1.3671875t-0.859375,0.6640625z M80.3125,156.40625l-0.15625,0l0.15625,0q2.265625,0,3.515625-0.3125q0.390625-0.390625,1.2890625-1.2109375t1.2890625-1.2109375q1.484375-1.40625,7.03125-5.859375q-2.421875,1.484375-7.4609375,4.4140625t-7.5390625,4.3359375l0.46875,0q0.15625,0,0.5078125-0.078125t0.8984375-0.078125z M95.703125,154.375l-1.171875,0.625q-0.15625,0,1.953125-1.171875q-0.15625,0.234375-0.78125,0.546875q-0.15625,0.078125-1.2890625,0.6640625t-2.265625,1.2109375t-2.34375,1.328125t-1.953125,1.2890625t-0.6640625,0.8984375q12.109375-7.03125,16.796875-10.546875q-1.40625,0.9375-4.1796875,2.578125t-4.1015625,2.578125z M89.765625,164.765625q0,0.3125,0.3125,0.3125q0.15625,0,0.78125-0.625q-1.5625,0-1.5625-0.703125q0-0.78125,1.5625-2.265625t2.421875-2.03125q0.9375-0.703125,2.7734375-2.2265625t2.6953125-2.2265625q-5.234375,3.359375-10.9375,6.40625q0.234375,0.703125,0.9765625,1.796875t0.9765625,1.5625z M92.34375,167.421875l-0.3125,0.234375q0.15625-0.078125,0.3125-0.234375q-0.234375,0.234375-1.171875,0.703125l0,0.3125q0.46875-0.3125,1.171875-1.015625z M82.421875,180.703125l-0.859375,0.703125q0.234375-0.234375,0.859375-0.703125l-0.46875,0.15625q-0.15625,0-0.3515625-0.078125t-0.3515625-0.078125q-0.078125,0-0.15625,0.078125t-0.1953125,0.15625t-0.2734375,0.15625q-0.703125,0-0.9375,0.78125q-0.3125,0.390625-0.9765625,1.09375t-0.9765625,1.09375q0.78125-0.546875,2.34375-1.6796875t2.34375-1.6796875z M77.421875,181.875l0.15625,0q0.078125,0,0.1953125-0.15625t0.234375-0.3515625t0.1953125-0.2734375l-0.15625,0q-0.625,0-0.625,0.78125z M78.203125,190.625l0.234375-0.15625q-0.234375,0-0.234375,0.15625q0.3125-0.234375,1.171875-0.6640625t1.40625-0.8984375q0.78125-1.015625,1.796875-1.796875q0.546875-0.46875,1.6796875-1.40625t1.6796875-1.40625q3.046875-2.578125,9.453125-7.421875q12.34375-8.75,16.953125-11.796875q-0.703125,0.078125-1.328125,0.234375t-1.40625,0.546875t-1.1328125,0.5859375t-1.2890625,0.8203125t-1.09375,0.703125q-1.09375,0.78125-3.2421875,2.1484375t-2.8515625,1.8359375q-4.921875,3.125-5.9375,3.671875q-0.546875,0.3125-0.8984375,0.625t-0.703125,0.859375t-0.5859375,0.78125q-3.125,3.671875-5,3.203125q-0.234375-0.15625-0.5078125-0.3125t-0.4296875-0.2734375t-0.3125-0.1171875t-1.015625,0.546875q-2.734375,1.953125-3.203125,2.34375q-1.875,1.171875-3.515625,2.578125q0,0.234375,0.078125,0.8203125t0.078125,0.8203125q0.078125,0.546875-0.1953125,1.640625t-0.2734375,1.484375l0,0.234375q0.15625-0.15625,0.625-0.390625z M89.921875,190.625l0.15625,0l-0.15625,0l0.78125,0.390625l0-0.546875q0-0.703125,0.5078125-1.5625t1.09375-1.40625t1.4453125-1.2890625t1.09375-0.9765625q3.125-2.5,7.578125-5.625q-11.328125,7.734375-15.546875,10.390625q1.25,0.625,3.046875,0.625z M100.78125,190.15625l0.15625,0l-0.3125,0l0.15625,0q0.15625,0,0.703125-0.078125t0.78125-0.078125q0.46875,0,1.09375,0.3125q0.3125-0.3125,0.9765625-1.015625t0.9765625-1.015625q0.78125-0.78125,2.3828125-2.421875t2.3828125-2.421875q1.640625-1.640625,9.296875-8.90625q-1.484375,0.3125-3.359375,1.25t-3.0078125,1.71875t-3.28125,2.4609375t-2.6953125,2.0703125q-1.25,0.859375-3.75,2.7734375t-4.4921875,3.359375t-3.9453125,2.6171875q0.390625,0.078125,1.0546875-0.2734375t1.0546875-0.3515625q0.625,0,0.9375,0.3125q1.5625-0.3125,2.890625-0.3125z M127.1875,190.78125q0.3125,0,1.25-1.953125t1.953125-4.375t1.09375-2.578125q-6.015625,3.515625-14.84375,8.4375l1.953125,0q4.0625,0,8.59375,0.46875z M131.875,191.328125q0.15625-0.078125,0.390625-0.15625t0.390625-0.15625q-0.15625-0.234375-0.390625-0.7421875t-0.390625-0.7421875q-1.40625,0.703125-2.578125,1.640625q0.15625,0.15625,0.46875,0.15625q0.234375,0,0.703125-0.078125t0.703125-0.078125q0.546875,0,0.703125,0.15625z M268.6515625,147.265625l0,0.703125q0,2.34375-0.46875,3.515625q0.15625,0.3125,0.15625,1.71875l0,0.625q0,0.078125-0.5859375,0.7421875t-0.5859375,0.7421875q0,0.15625-0.15625,0.5078125t-0.15625,0.4296875q-0.15625,0.546875-0.546875,1.6796875t-0.546875,1.6796875q-0.15625,0.46875-0.390625,1.71875t-0.546875,2.265625t-0.78125,1.640625q-0.390625,1.71875-1.953125,3.984375q-0.15625,0.234375-0.46875,1.1328125t-0.46875,1.1328125q-0.390625,0.390625-0.703125,1.2109375t-0.625,1.1328125q-0.078125,0.703125-0.8984375,1.6796875t-1.4453125,1.2109375q-0.3125,0.546875-0.703125,0.78125q0,1.484375-0.15625,2.109375q-0.625,1.484375-2.5,2.734375q-0.078125,0.078125-3.203125,2.734375q-0.625,0.625-2.1875,1.71875t-2.1875,1.796875q-2.109375,2.421875-3.828125,3.359375q-0.234375,0.078125-2.578125,1.40625t-3.671875,1.328125q-0.78125,0-1.875-0.546875q-0.234375-0.078125-1.015625-0.78125t-1.40625-0.625q-1.171875,0.546875-1.953125,0.78125q-0.234375,0-0.7421875,0.078125t-0.8203125,0.078125q-0.78125,0-1.484375-0.46875q-0.234375,0-0.859375,0.2734375t-0.859375,0.3515625l-0.3125,0q-0.234375,0-0.6640625-0.15625t-0.6640625-0.15625q-0.3125,0-0.46875,0.15625q-2.1875,1.328125-3.515625,1.328125q-0.625,0-0.78125-0.15625q-0.15625,0.15625-1.09375,0.15625q-1.484375,0-1.796875-0.15625q-1.875,0.3125-3.046875,0.3125q-0.46875,0.3125-1.40625,0.3125q-1.015625,0-1.328125-0.15625q-0.234375-0.078125-2.2265625-0.5078125t-2.8515625-0.9765625q-0.15625,0-1.0546875,0.2734375t-1.3671875,0.2734375q-0.859375,0-1.25-0.390625q-0.3125-0.234375-0.5078125-0.5078125t-0.3125-0.4296875t-0.390625-0.234375t-0.7421875-0.078125q-4.140625-0.625-5.078125-1.25q-0.78125,0.15625-1.640625,0.78125q-0.15625,0.15625-0.625,0.15625q-0.625,0-0.625-0.78125q0-0.625,0.46875-0.859375q-1.796875-1.5625-5.78125-3.7890625t-5.390625-3.2421875q-1.09375-0.46875-2.734375-1.796875t-2.421875-2.34375q-0.625-0.3125-1.71875-1.40625l-1.015625-0.15625q-0.9375-0.15625-0.9375-0.546875q0-0.3125,0.3125-0.625q-2.65625-1.71875-4.296875-4.609375q-1.40625-2.03125-2.265625-3.671875q-0.15625-0.3125-0.46875-0.3125t-0.8984375,0.3125t-0.8984375,0.3125t-0.46875-0.3125t-0.15625-0.78125q0-0.390625,1.015625-2.421875q-0.15625-0.15625-0.546875-0.9375q-1.796875-2.5-2.34375-4.6875l-0.546875-0.78125l-0.3125,0l-0.625,0q-0.625-0.234375-0.625-0.625q0-0.3125,0.390625-0.8203125t0.703125-0.6640625q-1.09375-2.578125-1.09375-4.296875q-0.703125-1.484375-1.09375-4.765625q-0.078125-0.390625-0.7421875-0.703125t-0.7421875-0.78125q0-0.078125-0.078125-0.3125t-0.078125-0.3125q0-0.625,0.546875-1.484375t0.625-1.25q-0.390625-1.328125-0.390625-3.359375q0-0.859375,0.078125-2.5t0.078125-2.578125q0-1.640625-0.15625-2.421875q-0.3125,0.15625-0.78125,0.15625q-0.78125,0-0.78125-0.78125q0-1.40625,1.71875-2.421875q0.390625-0.625,0.390625-1.640625q0-1.09375,0.15625-1.5625q0.3125-0.9375,0.5078125-3.046875t0.5859375-3.203125q1.5625-5.15625,2.734375-6.71875l0-0.15625q0-0.9375,0.546875-2.5390625t1.015625-2.2265625l0-0.3125q0-1.015625,0.703125-2.2265625t1.5625-1.6796875q0.859375-2.5,2.421875-3.046875q0.15625-0.15625,0.15625-0.46875l0-0.46875q0-0.46875,0.3125-0.625l0.9375-0.9375q0.390625-0.9375,1.875-2.1875t1.640625-1.484375q0.3125-1.40625,3.203125-3.046875q0.546875-1.25,1.796875-1.796875l0-0.46875q0-0.859375,0.625-2.109375q0.46875-0.703125,1.5625-1.5625t1.484375-1.328125q0.78125-1.25,2.34375-2.5q2.578125-2.265625,4.84375-2.265625q0.78125,0,1.25,0.15625q0.625,0.234375,1.484375,0.78125q0.3125-0.3125,1.25-0.625l0.46875,0q1.171875,0,1.953125,0.78125q0.078125-0.703125,0.5078125-0.9375t1.1328125-0.234375t0.9375-0.078125q1.25-0.625,1.71875-0.625q0.078125,0,0.234375,0.078125t0.234375,0.078125q0-0.546875,0.4296875-0.9375t0.8984375-0.390625q0.390625,0,0.78125,0.390625q0.390625,0.234375,0.625,0.625q0.078125,0.15625,0.15625,0.15625t0.15625-0.0390625t0.2734375-0.1171875t0.3515625-0.15625q0.078125,0,1.5625-1.2109375t2.34375-1.2109375q0.78125,0,1.5625,0.78125q0.3125-0.625,0.78125-0.625l0.3125,0q0.546875,0,1.171875,0.625q0.15625,0,0.390625-0.078125t0.390625-0.078125l0.3125,0q0.15625,0,0.703125-0.078125t0.859375-0.078125l0.390625,0q3.125,0.625,4.453125,0.625t2.265625,0.46875q0.15625-0.15625,0.625-0.15625q0.390625,0,1.2890625,0.2734375t1.2890625,0.2734375l0.3125,0q0.15625-0.15625,0.9375-0.15625q1.09375,0,2.65625,0.390625t2.109375,0.859375q1.328125-0.234375,4.84375,1.5625q0.703125,0.078125,1.4453125,0.390625t1.71875,0.8984375t1.4453125,0.8203125q2.03125,1.015625,2.421875,1.40625q0.390625,0.078125,1.25-0.234375t1.328125-0.234375q0.625,0.15625,0.625,0.859375q0,0.234375-0.078125,0.6640625t-0.078125,0.5859375q0,0.3125,0.15625,0.3125q0.9375,0.390625,2.109375,1.25q-0.078125-0.3125-0.46875-0.8203125t-0.390625-0.7421875q0-0.390625,0.625-0.78125q1.5625-0.78125,1.796875-1.171875q0-2.8125,2.265625-4.765625q0.15625-0.15625,0.78125-0.15625q1.171875,0,2.109375,0.3125q2.03125,0,2.96875,0.15625q0.234375,0,1.171875-0.15625t1.40625-0.15625q0.625,0,0.78125,0.15625l0.546875,0q0.46875,0,1.09375-0.3125q0.15625-0.078125,0.546875-0.234375t0.546875-0.234375q0.078125,0,0.9375,0.46875t1.015625,0.625q0.9375,0.390625,0.9375,2.109375l0,0.625q0.15625,0.46875,0.15625,1.71875q0,0.625-0.078125,1.875t-0.078125,1.640625q0.3125,3.59375,0.3125,5.46875q0.46875,3.28125,0.46875,4.296875t-0.15625,1.328125q0.3125,1.25,0.3125,3.359375q0,1.40625-0.15625,1.71875l0,1.171875q0,2.65625-0.46875,3.828125q0.3125,1.25,0.3125,2.890625q0,2.109375-0.3125,3.359375q0.3125,2.8125,0.3125,3.671875q0,1.40625-0.3125,2.1875q0,0.078125-0.078125,0.859375t-0.078125,1.09375q0,0.46875,0.15625,0.625q0.15625,0.3125,0.15625,1.484375q0,0.78125-0.15625,1.09375q-0.703125,1.40625-2.890625,1.40625l-0.46875,0q-0.078125,0-0.46875-0.078125t-0.46875-0.078125q-0.15625-0.15625-0.625-0.15625l-0.859375,0l-0.46875,0q-0.3125-0.15625-0.9375-0.15625q-0.46875,0-1.5234375,0.15625t-1.5234375,0.15625q-0.15625,0-0.46875-0.078125t-0.46875-0.078125q-0.46875,0.15625-2.265625,0.15625q-3.203125,0-4.140625-0.9375q-0.703125,0-1.015625-0.5078125t-0.46875-1.40625t-0.3125-1.1328125q-0.625,0.3125-0.78125,0.3125q-0.46875,0-0.46875-0.625q0-0.46875,0.3125-1.40625t0.3125-1.015625q-0.15625-0.234375-0.3125-0.9765625t-0.3125-1.0546875q-0.078125-0.15625-0.46875-1.328125q-1.09375,0-1.25-0.46875l-0.234375-0.3125q0-0.3125,0.546875-0.78125t0.625-0.625q-0.15625-0.15625-0.15625-1.015625l0-0.46875q-0.078125-0.15625-0.1171875-1.0546875t-0.1953125-1.1328125q0-0.15625-0.3125-0.15625q-0.15625,0-0.6640625,0.078125t-0.6640625,0.078125q-0.625,0-0.625-0.703125l0-0.3125q0.078125-0.3125,0.5078125-0.5078125t0.4296875-0.4296875q0-0.15625-0.15625-0.3125l-0.46875-0.9375q-1.796875-1.796875-2.265625-2.734375q-0.9375-0.703125-1.875-1.953125q-0.15625-0.078125-0.703125-0.15625t-0.9765625-0.2734375t-0.4296875-0.5078125q0-0.46875,0.15625-0.625q-1.640625-1.640625-5.078125-2.734375l-0.78125-0.3125l-0.5859375-0.234375t-0.4296875-0.078125q-0.15625,0-1.40625,0.3125q-0.078125,0-0.2734375,0.078125t-0.3515625,0.078125q-1.484375,0-1.484375-0.78125q0-0.234375,0.3125-0.546875q-1.5625,0-2.03125-0.3125q-0.3125,0-0.8203125,0.2734375t-0.8203125,0.2734375l-1.5625-0.390625q-0.546875,0-0.859375,0.15625q-1.484375,0-2.1875-0.46875q-0.15625,0-0.5859375,0.078125t-0.5859375,0.078125q-1.328125,0-2.03125-0.46875q-0.234375,0.078125-0.546875,0.234375q-0.3125,0.078125-0.46875,0.390625q0,0.078125-0.0390625,0.15625l-0.1171875,0.234375q-0.625,0.9375-1.09375,1.40625q-1.171875,1.171875-3.984375,2.734375q-0.078125,0-1.5234375,1.2109375t-2.6171875,1.1328125q-1.015625-0.078125-2.03125,0.625t-1.640625,0.859375l-0.703125,0.234375t-0.625,0.234375t-0.4296875,0.3515625t-0.5078125,0.7421875q-0.15625,0.390625-1.953125,2.578125q-0.15625,0.3125-0.546875,1.2890625t-0.703125,1.4453125q0.078125,0.46875-0.5078125,1.71875t-0.9765625,1.640625q0.078125,0.546875-0.234375,1.25t-0.8203125,1.5625t-0.6640625,1.171875q0,1.328125-0.9375,2.734375q-1.015625,2.734375-1.015625,3.671875q0,0.859375,0.15625,1.328125l0,0.3125q0,1.09375-0.625,2.03125l0,1.328125q0.3125,0.625,0.3125,1.71875q0,0.234375-0.078125,0.5859375t-0.078125,0.5078125q0.3125,0.46875,0.3125,2.265625q0,1.640625-0.15625,2.265625l0,1.40625q0.46875,0,0.703125,0.46875q0,0.46875-0.546875,1.015625q-0.15625,0.15625-0.15625,0.3125q0,0.078125,0.078125,0.3125t0.078125,0.3125q0.703125,2.8125,0.703125,4.296875q0.625,2.1875,0.625,3.671875l0,0.546875q0.703125,1.328125,1.25,3.359375q0.390625,0.859375,1.171875,3.203125t1.40625,3.515625q0.46875,0.703125,1.5234375,2.1484375t1.5234375,2.1484375q0.78125,1.640625,1.40625,2.03125q0.234375,0.078125,0.9765625-0.46875t1.1328125-0.46875q0.625,0.234375,0.625,0.625q0,0.546875-0.46875,1.171875t-0.78125,0.78125q0.703125,0.234375,2.1875,1.2109375t2.421875,1.2109375q0.390625,0.15625,1.484375,0.703125t1.71875,0.703125q0.234375,0,0.546875-0.15625t0.546875-0.15625q0.3125,0.078125,0.5078125,0.5078125t0.5078125,0.5859375q1.640625,0.625,2.5,1.171875l1.328125,0.3125q0.3125,0,0.78125-0.234375t0.78125-0.234375l0.3125,0q0.546875,0,1.484375,0.3125q0.625-0.3125,1.09375-0.3125q0.15625,0,0.78125,0.3125q0.390625,0,1.328125-0.078125t1.40625-0.078125q1.015625,0,1.328125,0.15625l0-0.46875q0-0.703125,0.390625-1.171875t0.859375-0.46875t1.25,0.78125q6.328125-7.34375,11.25-8.75q0.46875-0.15625,1.5625-0.15625q0.859375,0,1.328125,0.15625q0.3125-0.3125,0.625-0.9375t0.46875-0.859375t0.8203125-0.859375t1.09375-1.2109375t0.5078125-0.9765625q-1.015625-0.234375-1.015625-0.625q0-0.3125,0.3515625-0.78125t0.859375-0.8984375t0.5859375-0.5859375q0-0.9375,0.78125-1.71875l0-0.46875q0-1.40625,0.46875-2.109375q0.078125-0.3125,0.5859375-1.4453125t0.9765625-2.109375t0.390625-1.0546875q-0.15625-0.15625-0.15625-0.46875q0-0.9375,1.1328125-1.8359375t2.0703125-0.8984375q0.46875,0,0.625,0.15625q0.703125,0.46875,1.25,0.46875t1.6796875-0.3125t1.6796875-0.3125q1.015625,0,1.328125,0.3125q0.546875,0,1.6796875-0.3125t1.6796875-0.3125l0.625,0l2.578125,0q4.140625,0,4.140625,1.71875q0,0.46875-0.15625,0.78125z M255.9953125,172.109375l-0.3125,0.15625q0.15625,0,0.3125-0.15625l0-0.46875q-0.78125,0.625-2.3828125,1.9140625t-2.3828125,1.9140625q1.40625,0,2.03125,0.15625q0.15625-0.546875,1.015625-1.09375q0.703125-1.796875,1.71875-2.421875z M261.7765625,159.765625l-0.15625,0l0.15625,0q-2.421875,1.953125-7.3828125,5.546875t-5.5859375,4.0625q7.890625-4.84375,9.921875-5.625q0.15625-0.078125,0.546875-0.1953125t0.46875-0.15625t0.3515625-0.15625t0.3515625-0.1953125t0.234375-0.2734375t0.2734375-0.390625t0.1953125-0.5078125q0-0.3125,0.3125-1.0546875t0.3125-1.0546875z M252.3234375,169.21875q-0.15625,0.15625-0.3125,0.15625l0.3125-0.15625q-0.15625,0.078125-2.109375,1.25q0.078125,0,8.359375-4.296875q-3.515625,1.328125-6.25,3.046875z M262.5578125,156.09375l0,0.15625l0-0.15625q-0.078125,0.234375-1.0546875,0.703125t-2.109375,1.0546875t-1.4453125,0.8203125q-0.859375,0.390625-1.953125,1.25q-3.203125,1.796875-7.96875,5.15625q-0.46875,0.3125-1.4453125,0.859375t-1.4453125,0.859375q-0.390625,0.234375-1.171875,1.0546875t-1.40625,1.0546875q-1.5625,0.546875-1.71875,0.625q-0.15625,0.234375-0.3125,0.6640625t-0.2734375,0.703125t-0.390625,0.5078125t-0.6640625,0.234375q-0.859375-0.078125-1.1328125,0.1171875t-0.390625,0.78125t-0.4296875,0.9765625q-0.3125,0.46875-1.1328125,1.015625t-1.0546875,0.78125q4.84375-2.96875,20.3125-13.28125q0.859375-0.625,2.6171875-1.8359375t2.6171875-1.8359375q0.078125,0,0.546875-0.234375t0.78125-0.234375l0.15625,0q0.234375,0,0.3125-0.390625t0.078125-0.859375t0.078125-0.546875z M208.3390625,190.78125l0.625-0.15625l-0.625,0.15625q5.703125-2.65625,19.6875-11.015625q-0.546875-0.15625-1.3671875-0.703125t-1.2109375-0.546875q-0.625,0-1.09375,0.46875q-2.265625,1.796875-5.46875,3.828125q-2.109375,1.40625-6.2109375,3.9453125t-5.6640625,3.5546875q0.9375,0.46875,1.328125,0.46875z M221.4640625,179.140625q-3.515625,1.953125-10.078125,5.78125t-7.890625,4.609375l0.546875,0q0.9375,0,1.09375,0.15625q0.78125-0.3125,2.03125-1.25q0.3125-0.234375,2.3046875-1.484375t3.1640625-1.875q0.859375-0.546875,2.6953125-1.7578125t2.7734375-1.7578125q0.390625-0.234375,1.09375-0.8203125t1.2890625-0.9765625t0.9765625-0.625z M256.1515625,153.984375q-1.25,0.859375-1.25,1.015625l1.25-1.015625q-2.734375,1.875-5.625,3.515625q-0.546875,0.3125-0.859375,0.625t-0.4296875,0.546875t-0.3125,0.703125t-0.4296875,0.859375q1.015625-0.78125,4.1796875-3.203125t4.8046875-3.828125q-1.015625,0.703125-1.328125,0.78125z M264.8234375,148.90625l-0.625,0.78125q0.625-0.625,0.625-0.78125q-2.1875,2.421875-5.1171875,4.8046875t-6.6015625,5.0390625t-5.546875,4.21875q6.015625-3.359375,13.59375-8.28125q0.15625-0.078125,0.7421875-0.46875t0.8203125-0.390625q0.3125,0,0.5078125-0.0390625t0.3125-0.078125t0.1953125-0.15625t0.1171875-0.234375t0.078125-0.3515625t0.1171875-0.390625q0.546875-1.40625,0.78125-3.671875z M258.1046875,148.90625l-0.3125,0.15625q0.3125,0,0.3125-0.15625q-0.3125,0.15625-1.2109375,0.390625t-1.3671875,0.703125q-0.3125,0.3125-1.0546875,0.9765625t-1.0546875,0.9765625q-1.875,1.5625-2.890625,2.578125q-0.3125,0.3125-0.4296875,0.46875t-0.15625,0.2734375t-0.078125,0.390625t-0.1171875,0.5859375q6.25-3.828125,10.859375-7.03125q-1.875,0-2.5-0.3125z M250.9171875,151.796875q0,0.15625,0.15625,0.15625t0.46875-0.3515625t0.46875-0.5859375q-0.46875-0.46875-0.46875-0.859375q-0.078125,0.234375-0.3125,0.8203125t-0.3125,0.8203125z M216.9328125,179.140625q-0.859375-0.078125-2.03125,0.703125t-2.734375,2.2265625t-1.796875,1.6796875q0.390625-0.234375,8.359375-4.765625q-0.3125,0-0.8984375,0.078125t-0.8984375,0.078125z M212.3234375,178.359375l0.15625,0l-0.15625,0q-0.234375,0-0.5859375-0.234375t-0.5078125-0.234375l-0.3125,0.3125q-0.234375,0.3125-1.796875,1.875q-0.625,0.546875-1.40625,1.171875t-1.71875,1.328125t-1.484375,1.171875q2.34375-1.484375,8.75-4.921875q-0.46875-0.46875-0.9375-0.46875z M202.0890625,173.671875l-0.15625,0l0.15625,0q-0.625-0.078125-1.1328125-0.4296875t-0.6640625-0.3515625q-0.390625,0-1.25,0.625q-0.46875,0.390625-4.921875,4.375q-1.09375,0.78125-3.515625,3.0078125t-2.421875,2.8515625l0,0.15625q2.65625-1.484375,7.9296875-4.4921875t7.9296875-4.5703125q-1.015625-0.234375-1.953125-1.171875z M192.4796875,186.640625q0.234375-0.15625,3.28125-2.265625t4.6875-3.28125q-3.515625,2.5-8.28125,5.234375q0,0.3125,0.3125,0.3125z M198.7296875,171.640625q-0.390625-0.234375-1.171875,0.0390625t-1.796875,0.9375t-1.9140625,1.2890625t-1.875,1.328125t-1.2109375,0.859375q-4.296875,2.8125-5.9375,4.296875q1.71875-0.46875,7.9296875-4.375t5.9765625-4.375z M184.5109375,176.40625q2.109375-1.25,6.171875-3.6328125t6.09375-3.5546875q-0.46875-0.46875-1.0546875-1.4453125t-0.8203125-1.2890625q-0.15625,0.15625-10.390625,9.921875z M193.7296875,165.234375l0,0.15625l0.15625-0.15625l-0.15625,0z M190.2140625,157.734375q-0.3125-0.46875-0.6640625-1.640625t-0.4296875-1.25q-2.1875,2.34375-6.6796875,7.03125t-6.7578125,7.03125q2.65625-1.25,10.546875-6.5625q0.3125-0.3125,1.796875-1.2109375t2.1875-0.8984375q0.3125,0,0.3125,0.46875l0,0.546875q-0.234375,0.703125-1.015625,1.5234375t-1.5234375,1.3671875t-1.875,1.2890625t-1.4453125,0.8984375q-0.859375,0.625-2.5,1.8359375t-2.6171875,1.9921875t-2.3046875,1.875t-2.34375,2.109375q0.078125,0,0.234375,0.1171875t0.234375,0.1171875q0.546875,0,1.25-0.3515625t1.5625-0.9765625t1.171875-0.78125q0.390625-0.234375,5.78125-3.671875q0.859375-0.546875,2.421875-1.5625t2.9296875-1.8359375t2.6171875-1.4453125q-2.65625-3.4375-2.890625-6.015625z M167.8703125,164.921875q2.265625-1.25,6.875-3.9453125t6.875-3.9453125q1.09375-0.625,3.2421875-1.9140625t3.1640625-1.9140625q0.3125-0.3125,0.3125-0.78125q0-0.390625-0.78125-3.515625q-9.609375,6.71875-11.25,7.96875q-2.65625,1.875-6.5625,5.15625q-0.234375,0.15625-0.5859375,0.4296875t-0.546875,0.46875l-0.4296875,0.4296875t-0.3515625,0.4296875t-0.1171875,0.4296875q0,0.546875,0.15625,0.703125z M186.8546875,144.453125q0,0.15625-1.3671875,1.25t-3.125,2.3828125t-1.9140625,1.4453125q-1.015625,0.9375-3.046875,2.6171875t-3.125,2.5390625q1.5625-0.78125,7.96875-4.6875q0.703125-0.390625,2.1484375-1.171875t2.1484375-1.171875q0.625-0.390625,0.625-1.171875q0-0.15625-0.15625-0.859375t-0.15625-1.171875z M163.0265625,154.53125l1.640625-1.328125l-1.640625,1.328125q14.21875-11.5625,19.53125-16.484375q-2.34375,1.328125-7.0703125,4.0234375t-6.9921875,4.1015625q-1.09375,0.546875-3.1640625,1.7578125t-3.0859375,1.7578125q-0.15625,0-0.15625,0.46875q0,1.5625,0.9375,4.375z M160.8390625,139.296875l0.15625-0.15625l-0.15625,0.15625q0.15625,0.15625,0.15625,0.3125q1.484375-1.40625,3.203125-2.890625t3.0078125-2.578125t3.5546875-2.7734375t3.203125-2.3828125t3.671875-2.6171875t3.28125-2.3046875t3.7109375-2.578125t3.3984375-2.34375q-3.4375,1.015625-10.078125,5.625q-8.046875,5.234375-14.609375,10.078125q-0.9375,0.625-1.40625,0.625q-0.78125,0-0.78125-0.78125q0-0.078125,0.078125-0.3125t0.078125-0.390625q0.234375-0.703125,0.859375-1.5625t1.0546875-1.2890625t1.484375-1.328125t1.2109375-1.0546875q4.140625-3.4375,14.53125-10.859375q-12.890625,7.8125-17.890625,10.859375q-0.78125,0.46875-1.171875,1.0546875t-0.4296875,1.171875t-0.0390625,1.3671875t-0.078125,1.640625q0.3125,0.9375,0.3125,2.578125q0,1.484375-0.3125,2.734375z M192.4796875,108.90625l0,0.15625l0-0.15625q0-0.078125,0.078125-0.234375t0.078125-0.234375q-4.140625,2.96875-6.09375,4.140625q3.671875-2.03125,4.84375-2.265625q0.46875-0.078125,0.546875-0.078125t0.1953125-0.078125t0.078125-0.1953125t0.0390625-0.390625t0.234375-0.6640625z M186.3859375,133.359375l-0.15625,0l0.15625,0q0-0.15625-0.15625-0.15625q-0.234375,0-0.6640625,0.3515625t-0.8984375,0.78125t-0.625,0.5078125q-0.625,0.46875-2.03125,1.4453125t-2.03125,1.4453125q0.15625-0.078125,1.71875-1.171875t2.8515625-1.7578125t1.8359375-0.4296875l0-0.703125l0-0.3125z M187.1671875,121.875l0,0.15625l0-0.15625q0.078125-0.078125,0.1953125-0.234375t0.1953125-0.234375q-9.765625,6.640625-18.125,13.125q-2.96875,2.1875-7.03125,5.703125q-1.25,1.25-1.25,2.578125q0,0.15625,0.078125,0.859375t0.078125,1.25q1.953125-0.859375,3.8671875-1.8359375t4.0234375-2.34375t3.4765625-2.265625t3.90625-2.65625l3.5546875-2.4609375q0.3125-0.234375,2.0703125-1.25t2.734375-1.875t1.2890625-1.796875l0-0.78125q0-2.96875,0.9375-5.78125z M190.7609375,113.515625l0-0.15625l0,0.15625l0-0.78125q-1.40625,0.9375-5.1953125,3.4375t-5.7421875,3.828125t-4.9609375,3.515625t-5.4296875,4.1796875t-4.609375,4.1015625q12.890625-9.21875,19.21875-12.5q2.1875-1.328125,4.140625-1.796875q0.546875-0.15625,1.015625-0.8984375t0.9375-1.7578125t0.625-1.328125z M175.6828125,115.625l3.671875-2.265625q-3.046875,1.796875-3.671875,2.265625q3.4375-2.03125,10.390625-6.1328125t10.390625-6.2109375q-2.1875,0.859375-4.21875,1.8359375t-4.6484375,2.6171875t-3.7109375,2.34375t-4.453125,2.96875t-3.75,2.578125z M169.4328125,116.40625l1.640625-1.09375q0.15625,0-2.265625,1.71875l0.625-0.625q1.875-1.328125,20.46875-14.21875q-15,9.0625-21.09375,11.953125q-2.734375,1.328125-3.984375,1.640625q-0.78125,0.3125-1.40625,2.8515625t-1.015625,2.9296875q1.328125-1.015625,3.8671875-2.8515625t3.1640625-2.3046875z M174.4328125,109.53125l1.5625-0.9375q-3.046875,1.5625-3.046875,1.71875q0.546875-0.3125,1.484375-0.78125q11.953125-6.71875,32.734375-19.84375q-5.703125,3.203125-16.0546875,9.1796875t-14.6484375,8.3984375q-0.234375,0.15625-3.0859375,1.71875t-4.4140625,2.1875q-0.234375,0.15625-1.3671875,0.625t-1.6796875,0.9765625t-0.78125,1.3671875q1.328125-0.46875,9.296875-4.609375z M164.6671875,125.234375l-0.46875,0.3125l0.625-0.3125l-0.15625,0q-0.15625,0.078125-1.0546875,0.625t-1.5625,1.09375t-0.7421875,0.859375q0.9375-0.546875,2.734375-1.6796875t2.65625-1.6796875q-1.09375,0.546875-2.03125,0.78125z M175.8390625,138.203125l-2.578125,1.71875q-0.078125,0,0.78125-0.5859375t1.7578125-1.2109375t0.9765625-0.625l-0.9375,0.703125q-5.078125,3.359375-10.546875,6.5625q-0.546875,0.234375-1.6796875,0.78125t-1.6796875,0.78125q-0.46875,0.234375-0.46875,0.625l0.078125,0.390625q0.078125,0.3125,0.078125,0.625q2.34375-1.640625,6.9140625-4.5703125t6.5234375-4.2578125q2.8125-1.640625,7.03125-4.765625l1.171875-0.78125q1.25-0.78125,2.0703125-1.484375t0.8984375-1.09375q-0.9375,0.703125-10.390625,7.1875z M177.7921875,144.21875l-1.328125,1.171875q2.109375-1.640625,2.109375-1.796875q-0.3125,0.15625-0.78125,0.625q-0.3125,0.3125-12.03125,10.15625q3.75-2.109375,15.859375-9.453125l1.484375-0.78125q1.484375-0.78125,2.4609375-1.4453125t0.9765625-0.9765625q-0.15625-0.9375-0.15625-2.734375l0-2.734375q-0.703125,0.859375-1.484375,1.71875t-1.796875,1.7578125t-1.640625,1.4453125t-1.953125,1.640625t-1.71875,1.40625z M222.8703125,93.359375l0.15625,0l-0.15625,0q0.9375-0.3125,1.328125-0.3125q0.625,0,1.25,0.3125q0.234375,0,0.546875,0.078125t0.546875,0.078125q1.171875-0.78125,1.640625-1.25q4.0625-3.28125,6.71875-5.9375q-4.609375,2.734375-6.5625,3.671875q-0.390625,0.390625-2.890625,1.9140625t-2.578125,1.4453125z M232.4796875,85.078125l-0.3125,0.3125l0.3125-0.3125q-1.40625,1.015625-4.375,2.96875t-4.453125,2.96875q2.421875-1.328125,11.25-6.40625l-0.78125-0.390625q-0.390625,0-1.640625,0.859375z M240.1359375,87.265625q-0.9375,0.546875-0.9375,0.703125l0.9375-0.703125q-1.796875,1.171875-5.234375,3.4765625t-5.15625,3.3984375l0.46875,0.15625t0.3515625,0.15625t0.1953125,0.078125q0.15625,0,0.78125-0.390625q3.125-1.953125,3.671875-2.34375q2.96875-1.71875,5.9375-4.140625q-0.15625-0.078125-0.5078125-0.1953125t-0.5078125-0.1953125z M258.2609375,122.65625l0.46875-0.46875q-0.46875,0.3125-0.46875,0.46875q1.40625-0.9375,3.046875-2.109375q0.9375-0.625,1.5625-0.9375q-0.15625-0.46875-0.15625-1.40625l0-2.109375l0-0.9375q-5.078125,5.078125-7.34375,7.8125l0.3125,0q0.3125,0,0.9765625-0.234375t0.9765625-0.234375q0.46875,0,0.625,0.15625z M249.7453125,119.765625q0.390625-0.234375,0.859375-0.46875l0.625-0.3125t0.15625-0.15625q-1.640625,0.78125-1.640625,0.9375q6.875-3.75,11.5625-6.5625q0.859375-0.546875,1.09375-0.7421875t0.234375-0.8203125t0.078125-1.015625q0.15625-1.25,0.15625-3.671875q-7.1875,6.40625-8.75,7.890625q-0.15625,0.15625-1.5234375,1.328125t-2.1484375,2.0703125t-0.703125,1.5234375z M262.2453125,99.296875q0.15625,0.15625,0.15625,0.46875q0,0.703125-1.40625,2.578125q-2.421875,3.125-9.609375,9.296875q0.9375-0.625,3.515625-2.5390625t4.140625-2.9296875q0.15625-0.078125,0.8984375-0.546875t1.09375-0.6640625t1.015625-0.390625t1.1328125-0.1171875q0.3125-1.5625,0.3125-2.421875q0-1.09375-0.234375-3.1640625t-0.234375-2.9296875q-0.9375,0.703125-2.8515625,2.1484375t-2.9296875,2.1484375q3.125-1.5625,3.90625-1.5625q0.703125,0,1.09375,0.625z M262.5578125,92.109375l-0.3125,0.3125q0.3125-0.15625,0.3125-0.3125q-1.25,0.859375-4.9609375,3.28125t-5.7421875,3.90625q-0.234375,0.15625-1.640625,1.1328125t-2.2265625,1.7578125t-1.1328125,1.5625q1.09375,0,3.90625-1.875q0.78125-0.546875,1.6015625-1.2109375t1.8359375-1.484375t1.640625-1.2890625q0.78125-0.625,2.3828125-1.875t2.3828125-1.875q0.234375-0.15625,0.625-0.3515625t0.5859375-0.3125t0.4296875-0.3125t0.3125-0.4296875t0-0.625z M262.5578125,88.28125l0,0.15625l0-0.15625q0,0.3125-1.4453125,1.3671875t-3.2421875,2.1875t-1.875,1.2109375q-1.171875,0.859375-3.4375,2.34375t-4.0625,2.7734375t-3.359375,2.5390625q2.8125-1.796875,11.640625-8.125q3.125-1.953125,4.0625-2.421875q0.3125-0.15625,0.78125-0.3515625t0.546875-0.3125t0.15625-0.3515625t0.234375-0.859375z M240.8390625,100.859375l0.625-0.3125l-0.625,0.3125q3.203125-1.5625,7.1875-4.296875q-0.78125,0.390625-3.984375,2.3046875t-3.203125,1.9921875z M262.4015625,86.171875l-1.40625,0.625l1.40625-0.625q-5.9375,2.890625-16.328125,9.765625q3.515625-2.03125,9.921875-5.46875q0.234375-0.078125,1.09375-0.546875t1.6796875-0.8984375t1.6796875-0.9765625t1.40625-1.015625t0.546875-0.859375z M250.0578125,91.484375q2.421875-1.484375,2.578125-1.484375q-3.046875,1.953125-3.203125,1.953125q0.15625-0.15625,0.625-0.46875q5.78125-3.59375,8.828125-5.15625q0.234375-0.15625,1.328125-0.6640625t1.7578125-1.015625t0.5859375-1.0546875q-0.078125,0-0.234375,0.078125t-0.234375,0.078125q-0.3125,0-0.9375-0.234375t-0.859375-0.234375q-0.3125,0-0.625,0.3125q-0.390625,0.234375-1.2109375,0.8203125t-1.2109375,0.8203125q-5.234375,3.59375-6.875,4.453125q-0.390625,1.171875-1.875,1.796875l-0.46875,0.3125q-0.234375,0-0.5859375-0.234375t-0.5859375-0.234375q-0.859375,1.09375-2.6171875,2.890625t-2.4609375,2.65625q1.640625-1.171875,4.6875-3.125t3.59375-2.265625z M244.5109375,89.6875l-0.3125,0q-0.546875,0-1.640625,1.09375q1.953125-0.9375,1.953125-1.09375z M237.7921875,93.046875l-1.015625,0.78125q0.390625-0.3125,1.015625-0.78125q-0.625,0.46875-2.03125,1.3671875t-2.03125,1.3671875l0.390625,0.15625q0.546875,0,1.25-0.546875t1.4453125-1.3671875t0.9765625-0.9765625z M236.1515625,96.875l1.640625-1.09375q-0.390625,0.15625-1.640625,1.09375q0.625,0.078125,1.2109375,0.703125t0.7421875,0.625q0.3125,0,0.78125-0.46875q0.9375-1.09375,2.8515625-3.1640625t2.9296875-3.0859375q-2.734375,1.25-8.515625,5.390625z M246.0734375,106.953125q3.046875-2.1875,3.359375-2.5q-1.015625,0.625-2.265625,0.625q-1.71875,0-1.71875-1.328125q0-0.9375,1.09375-2.03125q-2.109375,1.40625-3.359375,1.71875q0.390625,0.46875,1.40625,1.640625t1.484375,1.875z M248.1828125,111.953125q0,0.15625,0.15625,0.15625q0.234375,0,0.6640625-0.390625t0.8984375-0.859375t0.625-0.546875q0.9375-0.9375,2.109375-1.875q0.625-0.546875,1.953125-1.796875t2.03125-1.875q3.046875-3.046875,3.984375-4.375q-1.25,0.46875-2.6953125,1.25t-2.3828125,1.4453125t-2.5,1.796875t-2.265625,1.6015625q-0.3125,0.234375-1.2109375,0.7421875t-1.4453125,1.015625t-0.546875,0.9765625l0,0.3125q0.625,0.859375,0.625,2.421875z M253.5734375,111.796875l-0.625,0.46875l1.171875-0.78125q-0.234375,0-0.546875,0.3125q-0.15625,0.15625-1.4453125,0.9765625t-2.421875,1.6015625t-1.0546875,1.09375q0.15625,0.78125,0.46875,2.03125q3.515625-3.515625,10.859375-10.234375q-0.859375,0.546875-3.0078125,2.1484375t-3.3984375,2.3828125z M251.3859375,122.5l0.15625,0l-0.3125,0l0.15625,0l1.25,0q1.171875,0,2.265625-1.25q0.625-0.78125,5.078125-5.625q-1.25,0.703125-3.671875,2.1484375t-3.671875,2.1484375q-0.078125,0.078125-0.78125,0.4296875t-1.171875,0.6640625t-0.46875,0.546875q0.15625,0.3125,0.15625,0.78125l0,0.15625l0.390625,0l0.625,0z M262.7140625,122.65625q0.3125,0,0.3125-0.3125q0-0.15625-0.078125-0.46875t-0.078125-0.46875q-0.78125,0.46875-2.03125,1.40625q0.234375,0,0.7421875-0.078125t0.8203125-0.078125l0.3125,0z M238.5734375,86.328125q-0.15625-0.078125-0.546875-0.3125t-0.546875-0.3125q-0.859375,1.09375-1.640625,1.71875q-0.3125,0.390625-0.78125,0.859375t-1.0546875,1.015625t-0.8984375,0.859375q0.15625-0.078125,1.5625-1.1328125t2.65625-1.9140625t1.25-0.78125z M225.4484375,82.03125l-0.15625,0l0.15625,0q-0.3125,0-0.859375-0.078125t-0.78125-0.078125q-1.25,0-2.8125,1.09375q-0.78125,0.46875-5.15625,3.515625q-1.25,0.78125-11.796875,8.046875q-15.859375,10.625-21.953125,15q6.875-4.453125,12.65625-7.1875q0.3125-0.078125,0.859375-0.3125t0.859375-0.3125q0.3125-0.15625,0.8984375-0.9375t0.8984375-1.015625q0.703125-0.625,3.515625-1.40625q1.796875-0.46875,3.671875-2.109375q2.109375-1.40625,2.421875-1.71875q1.796875-1.796875,2.890625-1.640625q0.78125,0,1.71875,0.9375q0.3125-0.46875,1.25-1.09375q1.71875-1.015625,2.578125-1.71875q1.484375-0.859375,4.1796875-2.6953125t4.921875-3.203125t4.3359375-2.3046875q-0.546875-0.3125-4.296875-0.78125z M209.1203125,81.09375l-0.15625,0l0.3125,0l-0.15625,0q-0.390625,0-0.703125-0.2734375t-0.546875-0.2734375q-0.15625,0-0.46875,0.15625q-0.546875,0.546875-1.328125,0.546875l-0.3125,0l-0.15625,0q-0.15625,0-0.3125,0.15625q-0.46875,0.390625-1.4453125,1.09375t-1.4453125,1.09375q-1.953125,1.5625-5.859375,4.53125t-5.78125,4.453125q-3.125,2.34375-9.375,7.1484375t-9.375,7.2265625q7.890625-4.609375,22.265625-11.953125q3.4375-1.796875,7.0703125-4.0234375t8.28125-5.2734375t6.8359375-4.453125q-0.3125,0-0.8203125-0.078125t-1.09375-0.234375t-0.8203125-0.234375l-0.46875,0q-1.25,0-1.71875-0.3125q-0.703125,0.703125-2.109375,0.703125l-0.3125,0z M175.6828125,97.734375l0.3125,0l-0.3125,0q2.109375-0.859375,2.578125-1.171875q2.734375-1.5625,3.671875-2.03125l-0.703125-0.234375t-0.625-0.15625t-0.78125,0.390625q-0.3125,0.234375-1.015625,0.625t-1.015625,0.625q-0.234375,0.234375-0.8984375,0.9765625t-1.2109375,0.9765625z M187.8703125,89.6875q-0.15625,0.15625-0.15625,0.3125l0.3125-0.3125l-0.15625,0q-0.3125,0.546875-1.328125,1.953125q5.3125-3.28125,13.125-8.515625q-0.78125,0.078125-1.796875,0.5859375t-2.109375,1.2890625t-1.640625,1.015625q-1.09375,0.625-3.1640625,1.8359375t-3.0859375,1.8359375z M167.0109375,108.75q0.078125-0.234375,1.2890625-1.0546875t1.7578125-1.0546875q1.71875-1.484375,7.578125-5.9375q5.234375-3.984375,11.328125-8.75q-0.390625,0.234375-2.65625,1.6796875t-3.125,1.953125t-2.65625,1.5234375t-3.28125,1.71875t-2.96875,1.25q-0.9375,0.390625-1.9140625,1.796875t-1.2890625,1.71875l-2.109375,2.109375q-0.625,0.625-0.9375,0.78125q0,0.3125-0.4296875,1.2109375t-0.5859375,1.0546875z M163.8078125,157.1875q0.390625,0.9375,1.3671875,2.8125t1.3671875,2.8125q2.109375-1.953125,8.046875-6.5625q-0.390625,0.234375-7.421875,4.296875q-0.15625,0.15625-0.625,0.15625q-0.78125,0-0.78125-0.625q0-0.3125,0.46875-0.78125q0.3125-0.3125,1.0546875-0.8984375t1.0546875-0.8984375q2.1875-1.796875,6.5234375-5.3125t6.4453125-5.234375q-3.984375,2.265625-9.921875,5.9375q-0.859375,0.390625-4.21875,2.1875t-3.359375,2.109375z M172.0109375,171.796875q0.78125,1.25,1.5625,1.25q0.546875,0,1.2890625-0.5859375t1.640625-1.6015625t1.2890625-1.328125q-2.734375,1.640625-3.515625,1.640625q-0.234375,0-1.015625-0.390625q-0.46875-0.234375-0.46875-0.625l0.46875-0.9375q1.484375-1.25,3.984375-4.140625q1.40625-1.40625,4.0625-4.21875t3.984375-4.140625q-8.4375,4.84375-16.640625,9.609375q0.546875,0.9375,1.6796875,2.734375t1.6796875,2.734375z M177.9484375,176.71875q0.3125,0.234375,0.6640625,0.6640625t0.625,0.703125t0.5859375,0.2734375q0.46875,0,0.78125-0.3125q0.546875-0.546875,1.71875-1.6796875t1.71875-1.6796875q1.015625-0.9375,2.9296875-2.8125t2.9296875-2.8125q-3.203125,2.1875-12.65625,7.1875q0.078125,0.078125,0.3515625,0.234375t0.3515625,0.234375z M182.5578125,180.546875q0.15625,0,0.3125,0.15625q0.078125-0.625,0.46875-1.171875t1.1328125-1.09375t1.25-0.8984375t1.40625-0.859375t1.0546875-0.5859375q-6.25,3.4375-6.71875,3.671875q0.625,0.3125,1.09375,0.78125z M184.8234375,182.03125l0.46875,0l-0.46875,0l1.875,0.9375q0.78125-1.09375,2.890625-3.203125q-2.890625,1.953125-4.765625,2.265625z M195.9953125,187.8125q0.78125,0,3.671875-2.421875q1.09375-0.703125,3.828125-2.734375q3.984375-3.125,5.15625-4.296875q-2.65625,1.40625-7.3046875,4.6484375t-6.7578125,4.4140625q0.15625,0.078125,0.5859375,0.234375t0.8203125,0.15625z M208.6515625,183.125q-0.234375,0.078125-3.8671875,2.1875t-5.4296875,3.28125q0.703125,0,1.640625,0.46875q0.390625-0.3125,1.171875-0.9765625t1.171875-0.9765625q1.953125-1.40625,5.3125-3.984375z M214.7453125,190.46875l-0.15625,0l0.15625,0l0.625,0q0.859375,0,2.578125-1.09375q1.875-1.484375,4.921875-3.359375q3.203125-1.953125,8.8671875-6.09375t6.9921875-5.078125q-18.359375,11.5625-26.5625,15.78125q0.15625,0,0.390625,0.078125t0.390625,0.078125q0.3125,0,0.8984375-0.15625t0.8984375-0.15625z M221.6203125,191.015625l0-0.234375l0,0.234375q0.078125-0.15625,0.625-0.703125q-0.78125,0.234375-0.78125,0.3125q0,0.234375,0.15625,0.390625z M229.2765625,188.90625l-0.3125,0l0.3125,0q1.71875,0.078125,2.6171875-0.5078125t2.2265625-2.3828125q2.65625-3.359375,4.921875-3.203125q0.3125-0.234375,7.8125-5.9375q1.328125-1.09375,3.671875-2.890625t3.203125-2.5l0.9375-0.625t1.2109375-0.8203125t1.015625-0.8203125t0.7421875-0.9375q-1.875,1.015625-6.1328125,3.1640625t-7.421875,3.9453125t-5.8203125,3.75q-1.5625,1.09375-4.8046875,3.4765625t-5.7421875,4.140625t-4.84375,3.2421875q0.625-0.3125,2.265625-0.3125l0.78125,0q0.3125-0.15625,0.625-0.15625l0.3125,0q0.546875,0,0.859375-0.3125q0.46875-0.3125,1.5625-0.3125z M236.4640625,192.421875l-0.15625,0l0.15625,0q0.3125-0.15625,0.78125-0.15625q-1.09375-0.546875-1.5625-1.484375q-0.3125,0.625-0.3125,1.015625t1.09375,0.625z"/><path fill="#" d=""/></svg>
